<?xml version="1.0" standalone="no"?>
<!DOCTYPE svg PUBLIC "-//W3C//DTD SVG 20010904//EN"
 "http://www.w3.org/TR/2001/REC-SVG-20010904/DTD/svg10.dtd">
<svg version="1.0" xmlns="http://www.w3.org/2000/svg"
 width="391.000000pt" height="391.000000pt" viewBox="0 0 391.000000 391.000000"
 preserveAspectRatio="xMidYMid meet">
<metadata>
Created by potrace 1.14, written by Peter Selinger 2001-2017
</metadata>
<g transform="translate(0.000000,391.000000) scale(0.100000,-0.100000)"
fill="#000000" stroke="none">
<path d="M2245 3903 c-40 -3 -182 -18 -265 -28 -39 -5 -74 -11 -165 -29 -317
-62 -666 -216 -930 -412 -203 -150 -247 -251 -186 -432 49 -147 113 -215 223
-236 45 -8 58 -14 54 -26 -2 -8 -61 -163 -131 -345 -69 -181 -132 -348 -140
-370 -8 -22 -53 -141 -100 -265 -48 -124 -104 -272 -125 -330 -21 -58 -54
-145 -73 -195 -246 -643 -241 -627 -241 -696 -1 -55 4 -73 25 -105 77 -116
217 -218 374 -272 98 -34 173 -45 305 -45 100 -1 132 3 158 17 55 29 62 81 22
169 -11 23 -20 54 -20 69 0 25 170 543 190 580 6 10 10 22 10 27 0 6 9 35 21
66 l20 55 47 -49 c26 -26 71 -77 101 -112 30 -35 62 -71 70 -80 352 -367 542
-528 830 -709 240 -149 354 -174 537 -116 171 54 364 221 409 352 29 86 -22
153 -186 239 -130 69 -346 215 -476 321 -127 104 -428 403 -416 414 4 4 85 35
178 70 401 147 668 313 935 580 323 324 456 604 445 940 -4 127 -7 148 -36
267 -53 219 -161 388 -311 491 -65 45 -185 99 -271 122 -69 19 -86 22 -171 35
-21 4 -46 8 -55 10 -9 2 -44 6 -76 10 -33 4 -73 9 -90 12 -32 6 -423 10 -490
6z m277 -721 c148 -66 214 -218 160 -372 -46 -131 -113 -223 -291 -400 -233
-231 -459 -373 -754 -474 -114 -39 -144 -44 -112 -20 206 154 309 272 507 579
113 175 116 189 62 291 -50 94 -56 160 -20 235 44 94 99 142 201 176 58 19
188 11 247 -15z"/>
</g>
</svg>
