<svg id="Layer_1" data-name="Layer 1" xmlns="http://www.w3.org/2000/svg" viewBox="0 0 393.97 67.21"><defs><style>.cls-1{fill:#076872;}</style></defs><path class="cls-1" d="M164.54,293.21a25.43,25.43,0,0,1-5.29,4.4,32.64,32.64,0,0,1-6.13,3,33.79,33.79,0,0,1-6.41,1.66,28.74,28.74,0,0,1-6.13.31,24.2,24.2,0,0,1-8.38-1.9,21.47,21.47,0,0,1-7-4.76,22.19,22.19,0,0,1-4.75-7.45,25.72,25.72,0,0,1-1.64-10.06,28,28,0,0,1,2.81-11.84,26.54,26.54,0,0,1,3.35-5.23,21.87,21.87,0,0,1,4.65-4.24,23.24,23.24,0,0,1,5.95-2.86,25.23,25.23,0,0,1,7.27-1.13,20.15,20.15,0,0,1,7.24,1.17,17.92,17.92,0,0,1,5.64,3.32,19.77,19.77,0,0,1,4.08,5,27.34,27.34,0,0,1,2.6,6.11,32.65,32.65,0,0,1,1.18,6.75v.07a6.47,6.47,0,0,1-6.45,6.85l-26.81.08a13.91,13.91,0,0,0,1.69,4.15,13,13,0,0,0,2.62,3.08,11,11,0,0,0,3.28,1.92,11.27,11.27,0,0,0,3.79.71,18.88,18.88,0,0,0,3.41-.35,20.36,20.36,0,0,0,3.74-1.12,21.17,21.17,0,0,0,3.66-1.89l0,0a6,6,0,0,1,6.89.31Zm-12.09-22a8,8,0,0,0-1.06-2.91,7.71,7.71,0,0,0-1.94-2.12,9.31,9.31,0,0,0-2.6-1.35,12.34,12.34,0,0,0-2.95-.58,13.64,13.64,0,0,0-7.21,1.49,10.48,10.48,0,0,0-2.86,2.15,8,8,0,0,0-1.81,3Z" transform="translate(-53.32 -238.26)"/><path class="cls-1" d="M215.8,293.21a25.37,25.37,0,0,1-5.28,4.4,32.64,32.64,0,0,1-6.13,3A33.7,33.7,0,0,1,198,302.3a28.71,28.71,0,0,1-6.13.31,24.2,24.2,0,0,1-8.37-1.9,21.36,21.36,0,0,1-7-4.76,22,22,0,0,1-4.75-7.45,25.71,25.71,0,0,1-1.65-10.06,28,28,0,0,1,2.81-11.84,27.05,27.05,0,0,1,3.36-5.23,21.87,21.87,0,0,1,4.65-4.24,23.09,23.09,0,0,1,6-2.86,25.11,25.11,0,0,1,7.26-1.13,20.21,20.21,0,0,1,7.25,1.17,17.87,17.87,0,0,1,5.63,3.32,19.59,19.59,0,0,1,4.09,5,27.31,27.31,0,0,1,2.59,6.11,32.66,32.66,0,0,1,1.19,6.75v.07a6.45,6.45,0,0,1-6.44,6.85l-26.82.08a13.92,13.92,0,0,0,1.7,4.15,12.74,12.74,0,0,0,2.61,3.08,11,11,0,0,0,3.29,1.92,11.17,11.17,0,0,0,3.78.71,18.7,18.7,0,0,0,3.41-.35,20.22,20.22,0,0,0,3.75-1.12,21.17,21.17,0,0,0,3.66-1.89l0,0a6,6,0,0,1,6.89.31Zm-12.08-22a8,8,0,0,0-1.07-2.91,7.42,7.42,0,0,0-1.94-2.12,9.18,9.18,0,0,0-2.6-1.35,12.15,12.15,0,0,0-3-.58,13.64,13.64,0,0,0-7.21,1.49,10.8,10.8,0,0,0-2.86,2.15,8.08,8.08,0,0,0-1.8,3Z" transform="translate(-53.32 -238.26)"/><path class="cls-1" d="M241.73,254.52a23.4,23.4,0,0,1,6.09.67,21.71,21.71,0,0,1,5.11,2l0-6.33a12.47,12.47,0,0,1,12.47-12.54h0c0,.82,0,2,0,3.67s0,3.53,0,5.71,0,4.58,0,7.21,0,5.36,0,8.2,0,5.72,0,8.64,0,5.76,0,8.51,0,5.38,0,7.87,0,4.71,0,6.68,0,3.62,0,5,0,2.24-.05,2.69h-8.73a3.15,3.15,0,0,1-3.15-3.15h0a21.46,21.46,0,0,1-5.12,2.12,22.66,22.66,0,0,1-6.11.78,20.2,20.2,0,0,1-7.55-1.34,19.34,19.34,0,0,1-5.85-3.62,20.47,20.47,0,0,1-4.17-5.32,26.28,26.28,0,0,1-2.49-6.45,30.31,30.31,0,0,1,0-14.09,26.05,26.05,0,0,1,2.49-6.46,20.89,20.89,0,0,1,4.14-5.34,19.1,19.1,0,0,1,5.78-3.66A19.79,19.79,0,0,1,241.73,254.52Zm1.62,35.69a9.49,9.49,0,0,0,4-1.09,9.87,9.87,0,0,0,3-2.46,11.5,11.5,0,0,0,1.91-3.41,14.29,14.29,0,0,0,.83-3.92v-2.55a14,14,0,0,0-.92-3.94,11,11,0,0,0-2-3.34,9.58,9.58,0,0,0-7.44-3.21,9.23,9.23,0,0,0-4.52,1A9.37,9.37,0,0,0,235,270.1a12,12,0,0,0-1.86,3.93,15,15,0,0,0-.53,4.47,16.06,16.06,0,0,0,.78,4.45,11.66,11.66,0,0,0,2.05,3.83,9.5,9.5,0,0,0,3.32,2.62A9.39,9.39,0,0,0,243.35,290.21Z" transform="translate(-53.32 -238.26)"/><path class="cls-1" d="M294.94,254.41a19.79,19.79,0,0,1,7.4,1.4,19,19,0,0,1,5.78,3.66,20.76,20.76,0,0,1,4.13,5.33,26.54,26.54,0,0,1,2.5,6.47,30.27,30.27,0,0,1,0,14.08,26.56,26.56,0,0,1-2.5,6.45,19.9,19.9,0,0,1-4.17,5.32,19.22,19.22,0,0,1-5.84,3.62,20,20,0,0,1-7.55,1.34,22,22,0,0,1-11.24-2.89h0a3.25,3.25,0,0,1-3.25,3.25h-8.62c0-.45,0-1.34-.05-2.69s0-3,0-5,0-4.2,0-6.68,0-5.11,0-7.88,0-5.62,0-8.54,0-5.79,0-8.62,0-5.56,0-8.2,0-5.05,0-7.23,0-4.08,0-5.7l0-3.68h0a12.48,12.48,0,0,1,12.48,12.56l0,6.24a21.64,21.64,0,0,1,5.1-2A23.86,23.86,0,0,1,294.94,254.41Zm-1.63,35.69a9.18,9.18,0,0,0,4.6-.81,9.57,9.57,0,0,0,3.32-2.61,12,12,0,0,0,2-3.84,16.06,16.06,0,0,0,.78-4.45,15.29,15.29,0,0,0-.53-4.47,12.13,12.13,0,0,0-1.86-3.92,9.09,9.09,0,0,0-7.69-3.82,9.87,9.87,0,0,0-4.29.88,9.75,9.75,0,0,0-3.15,2.34,11,11,0,0,0-2,3.34,14.23,14.23,0,0,0-.92,3.94v2.54a14.66,14.66,0,0,0,.83,3.92,11.72,11.72,0,0,0,1.91,3.41,10.17,10.17,0,0,0,2.95,2.46A9.36,9.36,0,0,0,293.31,290.1Z" transform="translate(-53.32 -238.26)"/><path class="cls-1" d="M344,301.63a23.28,23.28,0,0,1-8.13-1.28,20.12,20.12,0,0,1-10.8-8.92,25,25,0,0,1-2.65-6.49,29,29,0,0,1-.86-7.06,27.1,27.1,0,0,1,.92-7.09,26.4,26.4,0,0,1,2.7-6.52,20.77,20.77,0,0,1,4.45-5.37,20.4,20.4,0,0,1,6.2-3.62,22.3,22.3,0,0,1,7.92-1.33,20,20,0,0,1,7.54,1.35,19.15,19.15,0,0,1,5.85,3.62,19.9,19.9,0,0,1,4.17,5.32,26.4,26.4,0,0,1,2.5,6.45,29.73,29.73,0,0,1,.83,7,30.09,30.09,0,0,1-.83,7,26.7,26.7,0,0,1-2.5,6.47,20.76,20.76,0,0,1-4.13,5.33,19.22,19.22,0,0,1-5.78,3.66A19.79,19.79,0,0,1,344,301.63Zm-1.63-35.7a9.38,9.38,0,0,0-4.31,1.24A10.16,10.16,0,0,0,335,270a12.42,12.42,0,0,0-1.82,3.83,15.48,15.48,0,0,0-.58,4.33,14.34,14.34,0,0,0,.69,4.31,11.86,11.86,0,0,0,2,3.75,9.73,9.73,0,0,0,3.23,2.65,9.82,9.82,0,0,0,4.56,1,9.3,9.3,0,0,0,4.51-1.05,9.44,9.44,0,0,0,3.18-2.77,11.91,11.91,0,0,0,1.85-3.92,14.65,14.65,0,0,0,.53-4.47,15.76,15.76,0,0,0-.77-4.46,12.05,12.05,0,0,0-2.05-3.83,9.45,9.45,0,0,0-3.32-2.61A9.29,9.29,0,0,0,342.35,265.93Z" transform="translate(-53.32 -238.26)"/><path class="cls-1" d="M406.23,290.53a12.48,12.48,0,0,1-1.2,5.67,11.32,11.32,0,0,1-3.23,3.94,14.18,14.18,0,0,1-4.72,2.33,22.61,22.61,0,0,1-5.65.87,28.19,28.19,0,0,1-6-.48,29.9,29.9,0,0,1-5.88-1.71,25.72,25.72,0,0,1-5.2-2.83,16.9,16.9,0,0,1-3.92-3.8l4.25-5.39a3.86,3.86,0,0,1,5.17-.83l0,0a22.83,22.83,0,0,0,3.22,1.8,17,17,0,0,0,3.29,1.15,10.52,10.52,0,0,0,3,.32,4.72,4.72,0,0,0,2.31-.67,3,3,0,0,0,1.31-1.84,2.35,2.35,0,0,0-.81-2.24,18,18,0,0,0-3-2.44q-2-1.29-4.42-2.76t-4.89-3.13a41,41,0,0,1-4.54-3.57,15.56,15.56,0,0,1-3.33-4.13,10.14,10.14,0,0,1-1.25-4.42,11,11,0,0,1,.71-4.36,13.25,13.25,0,0,1,2.33-3.92,15.07,15.07,0,0,1,3.64-3.13,15.78,15.78,0,0,1,9.84-2.3,29.44,29.44,0,0,1,5.32,1.06,33.75,33.75,0,0,1,5.28,2,30.75,30.75,0,0,1,4.58,2.72,14.23,14.23,0,0,1,3.23,3.13l-3.33,4a5.67,5.67,0,0,1-7.37,1.15l0,0a17.61,17.61,0,0,0-4.19-1.92,9.56,9.56,0,0,0-3.66-.43,2.71,2.71,0,0,0-2.26,1.38,1.64,1.64,0,0,0-.12,1.33,3.58,3.58,0,0,0,.81,1.27,9.22,9.22,0,0,0,1.42,1.2,17.93,17.93,0,0,0,1.73,1.08c.6.33,1.17.63,1.73.9s1,.49,1.39.65a28.87,28.87,0,0,1,5.61,2.95,23.06,23.06,0,0,1,4.61,4.12,19.2,19.2,0,0,1,3.13,5.16A16.12,16.12,0,0,1,406.23,290.53Z" transform="translate(-53.32 -238.26)"/><path class="cls-1" d="M447.29,290.53a12.35,12.35,0,0,1-1.21,5.67,11.21,11.21,0,0,1-3.23,3.94,14.09,14.09,0,0,1-4.72,2.33,22.61,22.61,0,0,1-5.65.87,28.19,28.19,0,0,1-6-.48,30.1,30.1,0,0,1-5.88-1.71,25.72,25.72,0,0,1-5.2-2.83,17.1,17.1,0,0,1-3.92-3.8l4.25-5.39a3.87,3.87,0,0,1,5.17-.83l0,0a22.73,22.73,0,0,0,3.21,1.8,17.2,17.2,0,0,0,3.29,1.15,10.52,10.52,0,0,0,3,.32,4.79,4.79,0,0,0,2.32-.67,3.08,3.08,0,0,0,1.3-1.84,2.35,2.35,0,0,0-.81-2.24,17.56,17.56,0,0,0-3-2.44c-1.29-.86-2.77-1.78-4.42-2.76s-3.28-2-4.89-3.13a42,42,0,0,1-4.54-3.57,15.52,15.52,0,0,1-3.32-4.13,10,10,0,0,1-1.26-4.42,11,11,0,0,1,.71-4.36,13.47,13.47,0,0,1,2.33-3.92,15.26,15.26,0,0,1,3.64-3.13,15.78,15.78,0,0,1,9.84-2.3,29.44,29.44,0,0,1,5.32,1.06,34.25,34.25,0,0,1,5.29,2,31.16,31.16,0,0,1,4.57,2.72,14.51,14.51,0,0,1,3.24,3.13l-3.34,4a5.66,5.66,0,0,1-7.36,1.15l-.05,0a17.43,17.43,0,0,0-4.19-1.92,9.53,9.53,0,0,0-3.65-.43,2.68,2.68,0,0,0-2.26,1.38,1.61,1.61,0,0,0-.13,1.33,3.72,3.72,0,0,0,.81,1.27,9.22,9.22,0,0,0,1.42,1.2,17.93,17.93,0,0,0,1.73,1.08c.6.33,1.18.63,1.73.9s1,.49,1.4.65a28.79,28.79,0,0,1,5.6,2.95,23.06,23.06,0,0,1,4.61,4.12,19.2,19.2,0,0,1,3.13,5.16A16.12,16.12,0,0,1,447.29,290.53Z" transform="translate(-53.32 -238.26)"/><path class="cls-1" d="M72.32,286.59c-.59,1.7-1.14,3.29-1.68,4.89-.75,2.23-1.46,4.47-2.26,6.68a3,3,0,0,0,.19,2.48c.84,1.75.34,2.76-1.58,2.9-4.62.33-8.78-.73-12.17-4.11a4.41,4.41,0,0,1-1.09-5.18q2.67-7,5.35-14.07l8.31-21.79a2.82,2.82,0,0,0,.07-.31A1.91,1.91,0,0,0,67,258a4.17,4.17,0,0,1-3.83-2.64,12.85,12.85,0,0,1-1-3,4.71,4.71,0,0,1,1.91-4.54,38.76,38.76,0,0,1,15.81-7.94,52.56,52.56,0,0,1,23.67-.4c6.12,1.29,9.67,5.14,11,11.18,1.52,6.79-.33,12.6-4.82,17.79a42.16,42.16,0,0,1-18.89,12.66c-.94.33-1.87.7-3,1.12,1.78,1.78,3.34,3.42,5,5a50.5,50.5,0,0,0,11,7.87,15,15,0,0,1,1.84,1.11,2.39,2.39,0,0,1,.7,3.66,12.71,12.71,0,0,1-6.14,5,8.51,8.51,0,0,1-7.76-.71,65.68,65.68,0,0,1-16.12-13.24c-1.1-1.19-2.2-2.45-3.3-3.66Zm4.2-13.8.09.14.81-.21A33.78,33.78,0,0,0,92.92,263a15.42,15.42,0,0,0,4-6.07,4.86,4.86,0,0,0-2.71-6.15,6.15,6.15,0,0,0-4.63-.29,4.73,4.73,0,0,0-2.86,7.33,2.59,2.59,0,0,1,0,2.85c-.54.88-1.11,1.74-1.68,2.61C82.76,266.7,80.4,270,77,272.39a2.72,2.72,0,0,0-.43.4Z" transform="translate(-53.32 -238.26)"/></svg>