<svg id="Layer_1" data-name="Layer 1" xmlns="http://www.w3.org/2000/svg" viewBox="0 0 245.42 324.91"><defs><style>.cls-1{fill:#3194ff;}</style></defs><path class="cls-1" d="M1053.37,449.63V445c-.6-.22-.87-.42-1.1-.39-3.66.64-7.33,1.25-11,2-25.79,5-51.12,4.25-75.36-6.83-9.53-4.36-18.68-9.58-27.8-14.75-5.19-2.94-9.87-3-15,.06s-10.25,5.62-15.31,8.55c-24.69,14.29-51.2,18.56-79.22,14.4-6.78-1-13.51-2.33-20.66-3.57v5.24c0,34.86-.08,69.72,0,104.58,0,7.7.47,15.43,1.23,23.09,3.24,32.72,15.09,62.34,33.13,89.56,22.14,33.43,51.28,59.46,85.61,79.9a4.5,4.5,0,0,0,5.38,0C963.1,729.11,989,707.13,1010,679.53c27.93-36.79,43.52-77.91,43.41-124.52C1053.3,519.88,1053.37,484.75,1053.37,449.63ZM982,562.84a79.67,79.67,0,0,1-38.1,27c-1.81.62-3.59,1.32-5.91,2.18,8.19,9.22,16.88,16.89,27.06,22.83,1.71,1,3.47,1.9,5.18,2.88,4.87,2.79,5.48,5.5,2.12,9.85a24.14,24.14,0,0,1-15.18,9.35,15.77,15.77,0,0,1-9.39-1.86c-14.36-7.8-26.09-18.77-36.59-31.12-.85-1-1.82-1.9-3.26-3.4-2.78,8.12-5.44,15.64-7.86,23.23a5.4,5.4,0,0,0,.64,3.83c2.12,3.76-.32,5.53-3.15,5.7-9.49.56-18.09-1.74-24.58-9.35-2.28-2.68-2.13-5.42-1-8.48q12.64-33.32,25.21-66.67c.37-1,.83-1.91,1.41-3.25-6.33,0-8.44-4.06-10-9-1.68-5.41.67-8.87,4.76-12.06,16.77-13.06,36.14-17.47,56.92-17a95.76,95.76,0,0,1,16.27,1.87C980,512,987,519.61,989.5,533.08,991.52,544.18,989,553.84,982,562.84Z" transform="translate(-807.97 -422.78)"/><path class="cls-1" d="M948.84,531.2c-4.21-1.59-10-.4-12.6,2.87-2.85,3.53-3.5,7.15-.55,11.21a5.49,5.49,0,0,1,.11,5,155.33,155.33,0,0,1-11.1,15.9c-2.6,3.17-6.19,5.55-9.34,8.28,15.06-3.9,27-12.35,36.35-24.38a21.56,21.56,0,0,0,3.27-6.45C956.8,538,954.31,533.26,948.84,531.2Z" transform="translate(-807.97 -422.78)"/></svg>