<svg id="Layer_1" data-name="Layer 1" xmlns="http://www.w3.org/2000/svg" viewBox="0 0 522 113.14"><defs><style>.cls-1{fill:#056771;}</style></defs><path class="cls-1" d="M67,95.9c-1,2.87-1.92,5.55-2.83,8.24-1.27,3.75-2.46,7.52-3.8,11.25a5.05,5.05,0,0,0,.31,4.17c1.42,2.94.58,4.64-2.66,4.88-7.77.55-14.77-1.23-20.48-6.92a7.42,7.42,0,0,1-1.84-8.71c3-7.88,6-15.8,9-23.69l14-36.68a3.69,3.69,0,0,0,.11-.52,3.43,3.43,0,0,0-.79-.21,7,7,0,0,1-6.44-4.45,21.82,21.82,0,0,1-1.66-5.07c-.54-3.15.87-5.66,3.23-7.64a65.12,65.12,0,0,1,26.6-13.37,88.26,88.26,0,0,1,39.86-.67c10.29,2.17,16.27,8.65,18.53,18.82,2.55,11.43-.56,21.2-8.11,29.94A71.1,71.1,0,0,1,98.23,86.59c-1.59.54-3.15,1.17-5.08,1.88,3,3,5.63,5.75,8.43,8.4a84.76,84.76,0,0,0,18.47,13.24,25.08,25.08,0,0,1,3.1,1.88c2.37,1.76,2.77,3.66,1.18,6.15A21.34,21.34,0,0,1,114,126.63c-4.58,1.82-8.86,1.21-13.07-1.19a111,111,0,0,1-27.14-22.3c-1.85-2-3.69-4.11-5.54-6.15C67.88,96.65,67.51,96.35,67,95.9Zm7.07-23.23.14.24c.45-.12.92-.22,1.37-.35a56.77,56.77,0,0,0,26.1-16.37c2.8-3,5.48-6.12,6.68-10.22,1.31-4.45-.36-8.36-4.56-10.35A10.45,10.45,0,0,0,96,35.13c-5.74,1.76-7.88,7.21-4.82,12.34a4.36,4.36,0,0,1,0,4.8c-.91,1.48-1.86,2.94-2.82,4.4C84.57,62.42,80.6,68,74.8,72A5.66,5.66,0,0,0,74.08,72.67Z" transform="translate(-35.04 -14.55)"/><path class="cls-1" d="M283,37.1h16V80.48a5.52,5.52,0,0,0,0,1.15,8.07,8.07,0,0,0,.44,1.25,3.89,3.89,0,0,0,1.18-.62c2.31-2.54,4.53-5.17,6.86-7.69a95.41,95.41,0,0,1,7.65-7.92c6-5.14,13.21-7,21-7.23,1.62-.05,3.25,0,4.87,0l.11.46c-1.65,1.74-3.29,3.49-5,5.22q-7.94,8.18-15.9,16.33c-1.51,1.54-1.61,2.62-.31,4.79q8.52,14.16,17.06,28.31c1.52,2.53,3,5.07,4.5,7.62.26.44.47.92.83,1.63-4.18,0-8.13,0-12.08,0-1.84,0-3.69-.16-5.52,0a3.56,3.56,0,0,1-3.65-2c-2.07-3.6-4.17-7.18-6.25-10.78-2.53-4.4-5-8.81-7.55-13.21-.26-.45-.53-.89-.91-1.53-3.1,3-6.74,5.29-7.46,9.81a24,24,0,0,0,.05,3.59c0,4.06,0,8.12,0,12.18a1.94,1.94,0,0,1-2.15,2H283Z" transform="translate(-35.04 -14.55)"/><path class="cls-1" d="M203,105.27a17.07,17.07,0,0,1-3.11,7.75,29.25,29.25,0,0,1-20.33,12.42,39.22,39.22,0,0,1-6.86.85,39.22,39.22,0,0,1-21.6-7c-6.59-4.57-9.88-11.16-10.73-19a58.59,58.59,0,0,1,1-20.74c2.93-11.73,10.48-18.77,22.21-21.28a39.06,39.06,0,0,1,19.53.64c10.93,3.25,17.21,10.86,19.77,21.69a18,18,0,0,1,.33,6.85,9.88,9.88,0,0,1-9.75,8.34c-7,.17-14,.16-21.06.22-4.61,0-9.21,0-13.81.08-1.71,0-1.86.21-1.81,1.93A15.26,15.26,0,0,0,167.33,112c6,2,14.63,0,18-5.39a2.86,2.86,0,0,1,2-1.24C192.42,105.22,197.59,105.27,203,105.27Zm-31-20.1c4.31,0,8.62,0,12.93,0,1.2,0,1.68-.36,1.55-1.57A13.3,13.3,0,0,0,183.3,76c-5.21-5.91-15.13-6.54-21.29-1.29a12.38,12.38,0,0,0-4.51,8.92c-.08,1.19.29,1.61,1.52,1.59C163.33,85.13,167.65,85.17,172,85.17Z" transform="translate(-35.04 -14.55)"/><path class="cls-1" d="M211.76,79.88C211.62,70,217.27,62,226.32,59.43a46.09,46.09,0,0,1,30,1.41c6.57,2.52,10,7.46,10.21,14.29.32,12.27.24,24.56.29,36.84,0,3.51,0,7,2.71,9.75.32.32.34.94.56,1.64-2,.09-3.72.24-5.48.23-3.15,0-6.29-.12-9.43-.22a3.57,3.57,0,0,1-3.08-1.87c-.82-1.35-1.71-2.67-2.66-4.14-1.21,1-2.29,1.83-3.39,2.69-7.58,6-16,7.16-25,4.21C214.16,122,210.56,117,209.47,110a23,23,0,0,1,.45-9.63c1.9-7.14,6.86-11,13.81-12.5,6.09-1.34,12.21-2.51,18.3-3.8a31.54,31.54,0,0,0,4.89-1.33c2.83-1.11,3.65-3.21,2.66-6.06a8.06,8.06,0,0,0-7.42-5.76,16,16,0,0,0-13.52,4.6,15.38,15.38,0,0,1-10.33,4.35C216.15,80,214,79.88,211.76,79.88Zm38.1,13.29c-.57.07-1,.07-1.33.16-3.82.83-7.66,1.6-11.44,2.56a36.18,36.18,0,0,0-7,2.35c-3.82,1.86-4.35,5.38-3.89,9.16.4,3.26,2.44,5.16,5.5,6,5.71,1.54,10.5-.2,14.52-4.28C250.69,104.62,250.13,98.94,249.86,93.17Z" transform="translate(-35.04 -14.55)"/><path class="cls-1" d="M407.69,123.12c-5.35,0-10.48,0-15.61-.05a2.61,2.61,0,0,1-1.79-1.23c-.88-1.62-1.54-3.36-2.35-5.2-1.12.89-2.36,1.86-3.59,2.85-8.51,6.82-17.87,8-27.73,3.57-5.79-2.62-8.86-7.46-9.07-13.92a30.94,30.94,0,0,1,.82-9.77c1.49-5.11,4.63-8.81,9.71-10.31s10.24-2.41,15.37-3.53c3.3-.73,6.64-1.3,9.93-2.08,3.09-.74,4.82-2.85,4.81-5.57a6,6,0,0,0-4.88-6.15,22.48,22.48,0,0,0-8.59-.94,13.42,13.42,0,0,0-8.39,4.46c-4.33,4.65-9.87,5-15.68,4.32-.3,0-.71-.94-.71-1.44a18.36,18.36,0,0,1,8.71-15.95c4.15-2.77,8.92-3.64,13.74-4.18a45.1,45.1,0,0,1,20,2.33c5.5,1.9,9.86,5,11.28,11a29.72,29.72,0,0,1,.74,6.59c.07,10.45.11,20.89,0,31.34a25.72,25.72,0,0,0,2.7,12.45C407.31,122.12,407.44,122.52,407.69,123.12ZM387.49,92.7c-2,.58-4,1.23-6.09,1.74-3.89,1-7.83,1.7-11.68,2.79-6.19,1.74-7,8.09-5.28,12.3a5.87,5.87,0,0,0,4.17,3.74c5.26,1.14,10.31.66,14.68-2.86C388.07,106.56,389.08,98.69,387.49,92.7Z" transform="translate(-35.04 -14.55)"/><path class="cls-1" d="M511.07,61.76a33.31,33.31,0,0,1,13.46-6.57c9.9-2.11,18.76-.17,26.1,7.08,3.28,3.23,4.83,7.39,5.71,11.82A30.26,30.26,0,0,1,555,91.75c-3.42,8.35-10,13-18.71,14.52a34.07,34.07,0,0,1-15.39-.51A19.5,19.5,0,0,1,512,100.4a4.49,4.49,0,0,0-1.15-.61c-.21.44-.6.88-.6,1.32-.05,4.59,0,9.19-.05,13.78a23.3,23.3,0,0,1-.41,4.17c-.76,3.83-2.52,5.53-6.38,6a47.83,47.83,0,0,1-6.22.33c-2,0-2.81-.86-2.86-2.86-.05-1.78,0-3.57,0-5.36V59.48c0-.53,0-1.07,0-1.6a2,2,0,0,1,2.13-2.22,49.44,49.44,0,0,1,7.1.06,7.25,7.25,0,0,1,3.49,1.83A50.14,50.14,0,0,1,511.07,61.76Zm13.51,34.73,0-.12c.82,0,1.65,0,2.46-.12,5.39-.62,9.54-3,11.69-8.22a19.11,19.11,0,0,0,.89-11.94c-1.28-5.33-4.61-8.88-10-10.12a24.55,24.55,0,0,0-6.46-.53c-6.5.28-10.94,3.82-12.48,9.77a23.44,23.44,0,0,0-.32,10.34c1,5.3,3.95,9,9.36,10.24C521.3,96.17,523,96.26,524.58,96.49Z" transform="translate(-35.04 -14.55)"/><path class="cls-1" d="M436.61,62.24c3.05-3.17,6.45-5.69,10.63-6.7C458,52.92,468,54.17,476.41,62.11c3.58,3.38,5.29,7.79,6.08,12.56,1.11,6.71.6,13.29-2.7,19.3-4.61,8.41-12.09,12.34-21.54,12.67-7.21.26-13.7-2-19.78-5.71l-2-1.24c0,1,0,1.78,0,2.52-.1,4.74,0,9.48-.36,14.2-.46,6.12-7.39,10.72-13.38,9.21a2.55,2.55,0,0,1-2.22-2.46c-.11-1.4-.21-2.8-.21-4.19q0-29.82,0-59.63a4.77,4.77,0,0,1,.32-2.25,2.81,2.81,0,0,1,1.76-1.41c2.56-.11,5.13,0,7.69.11a5.27,5.27,0,0,1,4.33,2.78C435.1,59.75,435.82,61,436.61,62.24Zm14,34.24c7-.1,12.07-3.18,14.28-9a19.77,19.77,0,0,0,1.16-5.21c.49-5.94-1.4-11.92-7.15-15a18,18,0,0,0-10.14-1.83c-6.64.48-11,4.14-12.36,10.64a30.17,30.17,0,0,0-.49,7.48c.3,6.37,3.9,10.78,9.84,12.25A46.23,46.23,0,0,0,450.61,96.48Z" transform="translate(-35.04 -14.55)"/></svg>